<svg xmlns="http://www.w3.org/2000/svg" viewBox="0 0 512 512">
<defs>
<linearGradient id="sky" x1="0" y1="0" x2="1" y2="1"><stop stop-color="#0A3D91"/><stop offset=".55" stop-color="#0EA5FF"/><stop offset="1" stop-color="#38BDF8"/></linearGradient>
<linearGradient id="sun" x1="0" y1="0" x2="0" y2="1"><stop stop-color="#FCD34D"/><stop offset="1" stop-color="#F59E0B"/></linearGradient>
</defs>
<rect x="16" y="16" width="480" height="480" rx="108" fill="url(#sky)"/>
<circle cx="256" cy="225" r="130" fill="url(#sun)"/>

<path d="M256 78 C165 78 108 147 108 235 C108 326 185 380 256 432 C327 380 404 326 404 235 C404 147 347 78 256 78 Z" fill="none" stroke="#fff" stroke-width="32"/>
<circle cx="256" cy="235" r="78" fill="#0A3D91"/>
<path d="M300 188 L268 252 L206 284 L238 220 Z" fill="#fff"/>
<path d="M300 188 L268 252 L238 220 Z" fill="#F59E0B"/>
<circle cx="115" cy="118" r="8" fill="#fff"/>
<circle cx="150" cy="90" r="6" fill="#fff"/>
<path d="M377 67 l55 9 -41 34 8-24z" fill="#F59E0B"/>
</svg>
